<svg width="102" height="102" viewBox="0 0 102 102" fill="none" xmlns="http://www.w3.org/2000/svg">
<path fill-rule="evenodd" clip-rule="evenodd" d="M102 51C102 79.1665 79.1665 102 51 102C22.8335 102 0 79.1665 0 51C0 22.8335 22.8335 0 51 0C79.1665 0 102 22.8335 102 51ZM85.9721 51C85.9721 70.3142 70.3148 85.9715 51.0006 85.9715C49.6616 85.9715 48.3401 85.8962 47.0402 85.7497C64.6162 83.9026 78.3139 69.0367 78.3139 50.9714C78.3139 32.9963 64.7525 18.1886 47.3029 16.2218C48.518 16.0941 49.7517 16.0286 51.0006 16.0286C70.3148 16.0286 85.9721 31.6859 85.9721 51ZM39.707 75.6328C51.2334 73.5974 59.9999 63.3434 59.9999 51C59.9999 38.6566 51.2334 28.4026 39.707 26.3672C41.1018 26.1258 42.5361 26 43.9999 26C57.807 26 68.9999 37.1929 68.9999 51C68.9999 64.8071 57.807 76 43.9999 76C42.5361 76 41.1018 75.8742 39.707 75.6328Z" fill="black"/>
</svg>
