<svg width="495" height="102" viewBox="0 0 495 102" fill="none" xmlns="http://www.w3.org/2000/svg">
<path fill-rule="evenodd" clip-rule="evenodd" d="M102 51C102 79.1665 79.1665 102 51 102C22.8335 102 0 79.1665 0 51C0 22.8335 22.8335 0 51 0C79.1665 0 102 22.8335 102 51ZM85.9721 51C85.9721 70.3142 70.3148 85.9715 51.0006 85.9715C49.6616 85.9715 48.3401 85.8962 47.0402 85.7497C64.6162 83.9026 78.3139 69.0367 78.3139 50.9714C78.3139 32.9963 64.7525 18.1886 47.3029 16.2218C48.518 16.0941 49.7517 16.0286 51.0006 16.0286C70.3148 16.0286 85.9721 31.6859 85.9721 51ZM39.707 75.6328C51.2334 73.5974 59.9999 63.3434 59.9999 51C59.9999 38.6566 51.2334 28.4026 39.707 26.3672C41.1018 26.1258 42.5361 26 43.9999 26C57.807 26 68.9999 37.1929 68.9999 51C68.9999 64.8071 57.807 76 43.9999 76C42.5361 76 41.1018 75.8742 39.707 75.6328Z" fill="white"/>
<path d="M125.448 72.448C124.467 72.448 123.699 72.1707 123.144 71.616C122.632 71.0613 122.376 70.2933 122.376 69.312V29.568C122.376 28.544 122.653 27.776 123.208 27.264C123.763 26.7093 124.509 26.432 125.448 26.432C126.344 26.432 127.027 26.6027 127.496 26.944C128.008 27.2427 128.477 27.7973 128.904 28.608L145.672 59.904H143.688L160.392 28.608C160.819 27.7973 161.267 27.2427 161.736 26.944C162.205 26.6027 162.888 26.432 163.784 26.432C164.723 26.432 165.448 26.7093 165.96 27.264C166.472 27.776 166.728 28.544 166.728 29.568V69.312C166.728 70.2933 166.472 71.0613 165.96 71.616C165.491 72.1707 164.765 72.448 163.784 72.448C162.803 72.448 162.056 72.1707 161.544 71.616C161.032 71.0613 160.776 70.2933 160.776 69.312V36.288H162.184L147.336 63.744C146.995 64.384 146.632 64.8533 146.248 65.152C145.864 65.4507 145.331 65.6 144.648 65.6C143.965 65.6 143.411 65.4507 142.984 65.152C142.557 64.8107 142.173 64.3413 141.832 63.744L126.856 36.224H128.392V69.312C128.392 70.2933 128.136 71.0613 127.624 71.616C127.155 72.1707 126.429 72.448 125.448 72.448ZM188.317 72.448C187.25 72.448 186.418 72.1493 185.821 71.552C185.266 70.9547 184.989 70.1013 184.989 68.992V48.704L186.461 52.928L170.653 30.976C170.184 30.336 169.97 29.6747 170.013 28.992C170.056 28.2667 170.333 27.6693 170.845 27.2C171.4 26.688 172.125 26.432 173.021 26.432C173.704 26.432 174.322 26.6027 174.877 26.944C175.474 27.2853 176.029 27.8187 176.541 28.544L189.213 46.144H187.677L200.349 28.544C200.904 27.776 201.437 27.2427 201.949 26.944C202.461 26.6027 203.101 26.432 203.869 26.432C204.765 26.432 205.448 26.6667 205.917 27.136C206.429 27.5627 206.685 28.1387 206.685 28.864C206.728 29.5467 206.472 30.272 205.917 31.04L190.237 52.928L191.581 48.704V68.992C191.581 71.296 190.493 72.448 188.317 72.448ZM227.045 72C225.893 72 224.997 71.7013 224.357 71.104C223.759 70.464 223.461 69.568 223.461 68.416V30.464C223.461 29.312 223.759 28.4373 224.357 27.84C224.997 27.2 225.893 26.88 227.045 26.88H242.277C245.391 26.88 248.037 27.3493 250.213 28.288C252.431 29.2267 254.117 30.5707 255.269 32.32C256.463 34.0693 257.061 36.1813 257.061 38.656C257.061 41.3867 256.25 43.6907 254.629 45.568C253.007 47.4453 250.81 48.704 248.037 49.344V48.384C251.194 48.8107 253.669 50.0053 255.461 51.968C257.253 53.888 258.149 56.4053 258.149 59.52C258.149 63.5307 256.826 66.624 254.181 68.8C251.535 70.9333 247.823 72 243.045 72H227.045ZM229.861 66.88H242.277C245.477 66.88 247.845 66.2613 249.381 65.024C250.917 63.744 251.685 61.824 251.685 59.264C251.685 56.704 250.917 54.8053 249.381 53.568C247.845 52.3307 245.477 51.712 242.277 51.712H229.861V66.88ZM229.861 46.592H241.253C244.325 46.592 246.65 45.9733 248.229 44.736C249.807 43.4987 250.597 41.6853 250.597 39.296C250.597 36.9067 249.807 35.0933 248.229 33.856C246.65 32.6187 244.325 32 241.253 32H229.861V46.592ZM283.469 72.576C279.203 72.576 275.469 71.6373 272.269 69.76C269.112 67.84 266.659 65.152 264.909 61.696C263.203 58.1973 262.349 54.1013 262.349 49.408C262.349 45.8667 262.84 42.688 263.821 39.872C264.803 37.0133 266.211 34.5813 268.045 32.576C269.88 30.528 272.099 28.9707 274.701 27.904C277.304 26.8373 280.227 26.304 283.469 26.304C287.779 26.304 291.512 27.2427 294.669 29.12C297.827 30.9973 300.259 33.664 301.965 37.12C303.715 40.576 304.59 44.6507 304.59 49.344C304.59 52.8853 304.099 56.0853 303.118 58.944C302.136 61.8027 300.707 64.256 298.829 66.304C296.995 68.352 294.776 69.9093 292.174 70.976C289.571 72.0427 286.669 72.576 283.469 72.576ZM283.469 66.816C286.456 66.816 288.995 66.1333 291.085 64.768C293.219 63.4027 294.84 61.4187 295.949 58.816C297.101 56.2133 297.677 53.0773 297.677 49.408C297.677 43.904 296.44 39.6373 293.965 36.608C291.491 33.5787 287.992 32.064 283.469 32.064C280.483 32.064 277.923 32.7467 275.789 34.112C273.699 35.4347 272.077 37.3973 270.925 40C269.816 42.6027 269.261 45.7387 269.261 49.408C269.261 54.8693 270.499 59.136 272.973 62.208C275.491 65.28 278.989 66.816 283.469 66.816ZM329.895 72.576C325.628 72.576 321.895 71.6373 318.695 69.76C315.537 67.84 313.084 65.152 311.335 61.696C309.628 58.1973 308.775 54.1013 308.775 49.408C308.775 45.8667 309.265 42.688 310.247 39.872C311.228 37.0133 312.636 34.5813 314.47 32.576C316.305 30.528 318.524 28.9707 321.127 27.904C323.729 26.8373 326.652 26.304 329.895 26.304C334.204 26.304 337.937 27.2427 341.095 29.12C344.252 30.9973 346.684 33.664 348.391 37.12C350.14 40.576 351.015 44.6507 351.015 49.344C351.015 52.8853 350.524 56.0853 349.543 58.944C348.561 61.8027 347.132 64.256 345.255 66.304C343.42 68.352 341.201 69.9093 338.599 70.976C335.996 72.0427 333.095 72.576 329.895 72.576ZM329.895 66.816C332.881 66.816 335.42 66.1333 337.511 64.768C339.644 63.4027 341.265 61.4187 342.375 58.816C343.527 56.2133 344.103 53.0773 344.103 49.408C344.103 43.904 342.865 39.6373 340.391 36.608C337.916 33.5787 334.417 32.064 329.895 32.064C326.908 32.064 324.348 32.7467 322.215 34.112C320.124 35.4347 318.503 37.3973 317.351 40C316.241 42.6027 315.687 45.7387 315.687 49.408C315.687 54.8693 316.924 59.136 319.399 62.208C321.916 65.28 325.415 66.816 329.895 66.816ZM360.064 72.448C358.997 72.448 358.165 72.1493 357.568 71.552C357.013 70.9547 356.736 70.1227 356.736 69.056V29.76C356.736 28.6507 357.013 27.8187 357.568 27.264C358.165 26.7093 358.997 26.432 360.064 26.432C361.13 26.432 361.941 26.7093 362.496 27.264C363.093 27.8187 363.392 28.6507 363.392 29.76V47.168H363.52L383.168 28.16C383.808 27.5627 384.405 27.136 384.96 26.88C385.557 26.5813 386.218 26.432 386.944 26.432C387.925 26.432 388.629 26.688 389.056 27.2C389.525 27.6693 389.717 28.2453 389.632 28.928C389.546 29.6107 389.184 30.272 388.544 30.912L368.128 50.368L368.256 47.104L389.504 67.584C390.272 68.3093 390.677 69.056 390.72 69.824C390.762 70.592 390.528 71.232 390.016 71.744C389.504 72.2133 388.778 72.448 387.84 72.448C386.986 72.448 386.304 72.2773 385.792 71.936C385.28 71.5947 384.682 71.104 384 70.464L363.52 50.944H363.392V69.056C363.392 70.1227 363.114 70.9547 362.56 71.552C362.005 72.1493 361.173 72.448 360.064 72.448ZM397.989 72.448C396.922 72.448 396.09 72.1493 395.493 71.552C394.938 70.9547 394.661 70.1227 394.661 69.056V29.824C394.661 28.7147 394.938 27.8827 395.493 27.328C396.09 26.7307 396.922 26.432 397.989 26.432C399.055 26.432 399.866 26.7307 400.421 27.328C401.018 27.8827 401.317 28.7147 401.317 29.824V69.056C401.317 70.1227 401.039 70.9547 400.485 71.552C399.93 72.1493 399.098 72.448 397.989 72.448ZM411.721 72.448C410.74 72.448 409.972 72.1707 409.417 71.616C408.863 71.0613 408.585 70.272 408.585 69.248V29.76C408.585 28.6933 408.841 27.8827 409.353 27.328C409.908 26.7307 410.633 26.432 411.529 26.432C412.297 26.432 412.873 26.5813 413.257 26.88C413.684 27.136 414.175 27.6267 414.729 28.352L441.097 63.104H439.497V29.568C439.497 28.5867 439.753 27.8187 440.265 27.264C440.82 26.7093 441.588 26.432 442.569 26.432C443.593 26.432 444.361 26.7093 444.873 27.264C445.385 27.8187 445.641 28.5867 445.641 29.568V69.312C445.641 70.2933 445.385 71.0613 444.873 71.616C444.404 72.1707 443.764 72.448 442.953 72.448C442.185 72.448 441.545 72.2987 441.033 72C440.564 71.7013 440.052 71.1893 439.497 70.464L413.257 35.776H414.729V69.248C414.729 70.272 414.473 71.0613 413.961 71.616C413.449 72.1707 412.703 72.448 411.721 72.448ZM474.068 72.576C469.161 72.576 465.023 71.6587 461.652 69.824C458.281 67.9467 455.721 65.28 453.972 61.824C452.265 58.368 451.412 54.2507 451.412 49.472C451.412 45.888 451.903 42.688 452.884 39.872C453.908 37.0133 455.359 34.5813 457.236 32.576C459.156 30.528 461.481 28.9707 464.212 27.904C466.985 26.8373 470.121 26.304 473.62 26.304C476.18 26.304 478.697 26.6453 481.172 27.328C483.647 27.968 485.908 29.0347 487.956 30.528C488.553 30.9547 488.937 31.4453 489.108 32C489.279 32.5547 489.279 33.1307 489.108 33.728C488.98 34.2827 488.703 34.7733 488.276 35.2C487.892 35.6267 487.401 35.8827 486.804 35.968C486.249 36.0533 485.631 35.8827 484.948 35.456C483.284 34.304 481.535 33.472 479.7 32.96C477.865 32.4053 475.839 32.128 473.62 32.128C470.292 32.128 467.476 32.8107 465.172 34.176C462.911 35.5413 461.204 37.5253 460.052 40.128C458.9 42.688 458.324 45.8027 458.324 49.472C458.324 55.1467 459.668 59.456 462.356 62.4C465.044 65.344 469.033 66.816 474.324 66.816C476.244 66.816 478.121 66.6453 479.956 66.304C481.833 65.92 483.625 65.3867 485.332 64.704L483.988 68.032V53.12H475.732C474.879 53.12 474.196 52.9067 473.684 52.48C473.215 52.0107 472.98 51.3707 472.98 50.56C472.98 49.7493 473.215 49.152 473.684 48.768C474.196 48.3413 474.879 48.128 475.732 48.128H486.804C487.7 48.128 488.383 48.3627 488.852 48.832C489.321 49.3013 489.556 49.984 489.556 50.88V67.008C489.556 67.776 489.407 68.4373 489.108 68.992C488.852 69.504 488.404 69.888 487.764 70.144C485.929 70.8693 483.775 71.4667 481.3 71.936C478.825 72.3627 476.415 72.576 474.068 72.576Z" fill="white"/>
</svg>
